<svg width="16" height="12" viewBox="0 0 16.3862 12.0406" fill="none" xmlns="http://www.w3.org/2000/svg">
<g id="Group 10">
<path id="Vector 29" d="M0.916653 6.03556H15.7362" stroke="var(--stroke-0, black)" stroke-width="1.3" stroke-linecap="round"/>
<path id="Vector 30" d="M0.650051 6.0356C0.747514 5.89879 1.22745 5.30362 1.80497 4.66457C2.26271 4.15805 2.64762 3.70806 2.93751 3.38217C3.60514 2.63162 3.98561 2.27238 4.30611 1.92235C4.75484 1.49362 4.96554 1.24582 5.20605 0.955486C5.31491 0.831956 5.39698 0.756756 5.55465 0.650065" stroke="var(--stroke-0, black)" stroke-width="1.3" stroke-linecap="round"/>
<path id="Vector 31" d="M0.916653 6.39054C0.96502 6.4219 1.10208 6.54886 1.29809 6.7277C1.51379 6.92452 1.6639 7.03494 1.85398 7.18156C2.36615 7.57664 2.93342 8.12074 3.13328 8.31091C3.30858 8.47771 3.45991 8.61879 3.67234 8.85849C4.051 9.28575 4.18329 9.4578 4.33447 9.60971C4.51455 9.79067 4.88865 10.2179 5.24586 10.5966C5.53703 10.8896 5.70844 11.0887 5.81012 11.2318C5.83679 11.2686 5.86508 11.3054 5.91665 11.3905" stroke="var(--stroke-0, black)" stroke-width="1.3" stroke-linecap="round"/>
</g>
</svg>
