<svg preserveAspectRatio="none" width="100%" height="100%" overflow="visible" style="display: block;" viewBox="0 0 32 32" fill="none" xmlns="http://www.w3.org/2000/svg">
<g id="attachment">
<circle id="Ellipse 1" cx="16" cy="16" r="16" fill="var(--fill-0, white)"/>
<path id="Vector 1" d="M11 14.1373C11 14.1402 11 14.1431 11.0011 14.7516C11.0021 15.3601 11.0042 16.5742 11.0584 17.5292C11.1127 18.4842 11.219 19.1433 11.3183 19.6183C11.4758 20.3714 11.6633 20.7534 11.8465 21.0476C12.1245 21.494 12.4914 21.956 12.8028 22.2991C12.9952 22.5112 13.3035 22.6975 13.7104 22.9349C14.2553 23.2527 14.6774 23.2762 15.2773 23.338C16.1176 23.4246 16.7478 23.3437 17.0733 23.2332C17.5385 23.0752 18.0125 22.7979 18.3981 22.5812C18.6631 22.4324 18.9832 22.1147 19.3915 21.6996C19.694 21.3921 19.8899 20.9631 20.1369 20.4323C20.2668 20.1531 20.3509 19.8299 20.4715 19.2384C20.5922 18.6469 20.7328 17.7908 20.8113 16.8358C20.8899 15.8807 20.9022 14.8526 20.8997 14.2441C20.8973 13.6356 20.8797 13.4779 20.8644 13.243C20.849 13.0081 20.8364 12.7009 20.6976 12.0619C20.5588 11.4228 20.2943 10.4613 20.146 9.93587C19.9802 9.34825 19.8267 9.10547 19.5529 8.7394C19.2599 8.34758 18.9875 8.16002 18.8792 8.10378C18.5659 7.94118 17.8393 7.98948 17.2706 8.1127C16.6534 8.24645 16.1005 8.64348 15.6798 8.92694C15.2644 9.20685 14.9667 9.56207 14.6938 9.92002C14.3657 10.3505 14.1904 10.7808 14.099 11.0276C14.0449 11.1739 13.9755 11.4696 13.8588 12.2865C13.7774 12.8568 13.7623 13.7565 13.7832 14.5216C13.8041 15.2868 13.8899 15.8937 14.0284 16.5737C14.1669 17.2537 14.3554 17.9885 14.461 18.4137C14.6283 19.0867 14.6795 19.3404 14.7606 19.5127C14.8549 19.7131 15.1375 19.7577 15.3511 19.8893C15.4389 19.9433 15.5197 19.9805 15.6221 20.0007C15.7584 20.0275 16.2811 19.6373 16.5 19.5127C16.64 19.4329 16.655 19.3754 17.107 18.8465C17.3339 18.581 17.4239 18.3804 17.5282 18.1073C17.6538 17.7784 17.7156 17.4493 17.747 17.072C17.767 16.8314 17.7574 16.4888 17.7102 15.9115C17.663 15.3342 17.5687 14.5321 17.5175 13.8331C17.4664 13.1341 17.4612 12.5626 17.4559 11.9738" stroke="var(--stroke-0, black)" stroke-width="1.4" stroke-linecap="round" stroke-linejoin="bevel"/>
</g>
</svg>
