<svg preserveAspectRatio="none" width="100%" height="100%" overflow="visible" style="display: block;" viewBox="0 0 32 32" fill="none" xmlns="http://www.w3.org/2000/svg">
<g id="attachment">
<circle id="Ellipse 1" cx="16" cy="16" r="16" fill="var(--fill-0, white)"/>
<g id="Group 1">
<path id="Vector 2" d="M18.1482 14.0975C18.1421 14.0945 18.1099 14.0595 17.912 13.9161C17.4579 13.587 16.864 13.2782 16.4553 13.0396C16.1461 12.859 15.8707 12.8189 15.3169 12.828C14.7487 12.8374 14.4637 13.0921 14.0845 13.3505C13.9307 13.4553 13.7399 13.6908 13.4754 14.0416C13.2034 14.4022 13.0464 14.7984 12.9166 15.1578C12.6859 15.7966 12.7368 16.4616 12.824 17.1137C12.9151 17.7942 13.388 18.2877 13.7902 18.7866C13.9888 19.0331 14.475 19.1855 15.0013 19.3437C15.146 19.3871 15.29 19.3766 15.4411 19.361C15.5667 19.348 16.3026 19.179 16.9869 18.6432C17.6691 18.1091 17.6377 17.5777 17.7267 17.4409C17.7903 17.3432 17.8803 17.181 18.0898 16.5768C18.2993 15.9727 18.6229 14.9296 18.7932 14.3692C18.9785 13.6152 18.9261 13.3657 18.8753 13.1484C18.8644 13.0836 18.8813 12.669 18.8443 12.528" stroke="var(--stroke-0, black)" stroke-width="1.4" stroke-linecap="round"/>
<path id="Vector 3" d="M18.1734 17.4402C18.2188 17.4685 18.4103 17.6467 19.2911 18.48C19.5293 18.7053 19.8536 18.834 20.2809 19.0013C20.5381 19.102 20.9962 19.1103 21.6295 19.0812C22.3233 19.0493 22.9156 18.4784 23.2664 18.1973C23.4899 18.0184 23.6618 17.2701 23.7585 16.618C23.7997 16.34 23.7717 15.8272 23.7221 15.3074C23.6725 14.7875 23.5666 14.2731 23.4557 13.8789C23.3449 13.4847 23.2323 13.2262 22.977 12.7277C22.7216 12.2292 22.327 11.4984 22.0489 11.0349C21.7708 10.5714 21.6212 10.3972 21.3689 10.1743C21.1165 9.95136 20.7659 9.68492 20.3612 9.40167C19.9564 9.11841 19.5082 8.8264 19.198 8.64025C18.5297 8.23922 18.1794 8.17526 17.5151 8.05578C17.1265 7.98589 16.4229 7.98566 15.725 8.033C15.027 8.08033 14.3508 8.21459 13.7662 8.35446C13.1815 8.49432 12.7088 8.63571 12.3132 8.78554C11.5995 9.05577 11.2378 9.29548 11.0523 9.46865C10.7236 9.77547 10.4191 10.1879 10.0677 10.6919C9.84651 11.009 9.56307 11.4676 9.31666 11.9057C9.07025 12.3437 8.87576 12.7517 8.67886 13.2483C8.48197 13.745 8.28855 14.318 8.17829 14.6619C8.03769 15.1004 8.01775 15.2603 8.00677 15.4729C7.98566 15.8813 8.00881 16.2049 8.14987 16.7302C8.27493 17.1959 8.44041 18.3074 8.67886 19.0013C8.91732 19.6953 9.16675 20.0706 9.31666 20.4096C9.46656 20.7486 9.76897 21.1644 10 21.5C10.231 21.8356 10.4515 21.9584 10.6737 22.2481C10.948 22.6056 11.1812 22.802 11.5469 23.0775C11.7419 23.2245 11.9883 23.3405 12.3158 23.4872C13.0449 23.8137 13.6901 24.0083 14.0513 24.0804C14.1963 24.1094 14.265 24.1146 14.6972 24.1207C15.1294 24.1268 15.9234 24.1314 16.4072 24.1102C17.0437 24.0822 17.4687 23.8773 17.9084 23.6883C18.1263 23.5946 18.2307 23.5373 18.4821 23.4482C19.578 23.0291 20.112 22.729 20.2216 22.6442C20.2698 22.6055 20.3033 22.5758 20.3471 22.54" stroke="var(--stroke-0, black)" stroke-width="1.4" stroke-linecap="round"/>
</g>
</g>
</svg>
