<svg preserveAspectRatio="none" width="100%" height="100%" overflow="visible" style="display: block;" viewBox="0 0 32 32" fill="none" xmlns="http://www.w3.org/2000/svg">
<g id="Group 5">
<g id="Group 3">
<path id="Vector 5" d="M11 18.0816C11.0185 18.1835 11.6643 19.5586 12.2698 20.5899C12.3739 20.7672 12.8732 21.1673 13.7079 21.8285C14.4553 22.4205 15.147 22.7056 15.5921 22.9284C15.9464 23.1058 16.592 23.1471 17.4747 23.1278C18.2557 23.1108 19.2102 22.7651 20.2001 22.4955C21.0486 22.2645 21.5554 22.1026 21.9175 21.9493C22.3368 21.7717 22.7097 21.118 23.5931 19.7399C24.3271 18.5949 24.3159 17.7062 24.3077 16.5454C24.2992 15.3533 23.809 14.9344 23.4792 13.9281C23.2788 13.3168 23.0571 12.9466 22.6694 12.1916C22.5483 11.9557 21.9654 11.4026 21.0966 10.5979C20.2955 9.85578 19.6827 9.73125 19.3024 9.59703C18.88 9.44795 18.4459 9.38501 17.921 9.35317C16.1614 9.24643 15.5972 9.59595 15.302 9.75546C14.9429 9.94953 14.5441 10.1683 14.2562 10.346C13.935 10.5035 13.6667 10.6839 13.3934 10.838C13.3317 10.8765 13.2798 10.9217 13.2344 10.9764" stroke="var(--stroke-0, black)" stroke-width="2" stroke-linecap="round"/>
<path id="Vector 6" d="M11.7915 9C11.7915 9.00088 11.7915 9.00176 11.7919 9.27516C11.7922 9.54856 11.7929 10.0945 11.7941 10.5992C11.7953 11.104 11.7969 11.5511 11.7966 11.797C11.7962 12.0429 11.7938 12.0742 11.7915 12.1356C11.7892 12.1971 11.7871 12.2879 11.7932 12.3846" stroke="var(--stroke-0, black)" stroke-width="2" stroke-linecap="round"/>
<path id="Vector 7" d="M11.6218 12.4767C11.6227 12.4767 11.6236 12.4767 11.9606 12.4767C12.2977 12.4767 12.9709 12.4767 13.4774 12.4792C13.9838 12.4817 14.3032 12.4867 14.6321 12.4918" stroke="var(--stroke-0, black)" stroke-width="2" stroke-linecap="round"/>
</g>
<circle id="Ellipse 1" cx="16" cy="16" r="16" fill="var(--fill-0, black)"/>
<g id="Group 4">
<path id="Vector 5_2" d="M9 18.0817C9.01852 18.1835 9.66428 19.5587 10.2698 20.5899C10.3739 20.7673 10.8732 21.1674 11.7079 21.8285C12.4553 22.4206 13.147 22.7057 13.5921 22.9285C13.9464 23.1058 14.592 23.1471 15.4747 23.1279C16.2557 23.1108 17.2102 22.7651 18.2001 22.4956C19.0486 22.2645 20 21.5 20 21.5C20 21.5 20.7097 21.1181 21.5931 19.7399C22.3271 18.595 22.3159 17.7062 22.3077 16.5455C22.2992 15.3534 22.3298 14.8006 22 13.7943C21.7996 13.183 21.4357 12.7469 20.8865 11.9537C20.7323 11.7309 20.2943 11.133 19.2413 10.5141C18.2998 9.96079 17.6827 9.73129 17.3024 9.59707C16.88 9.448 16.4459 9.38506 15.921 9.35322C14.1614 9.24647 13.5972 9.596 13.302 9.75551C12.9429 9.94957 12.5441 10.1683 12.2562 10.3461C11.935 10.5035 11.6667 10.684 11.3934 10.8381C11.3317 10.8765 11.2798 10.9217 11.2344 10.9764" stroke="var(--stroke-0, white)" stroke-width="1.2" stroke-linecap="round"/>
<path id="Vector 6_2" d="M10.2901 8.58805C10.2901 8.58893 10.2901 8.58981 10.2904 8.86321C10.2908 9.13661 10.2915 9.68251 10.2927 10.1873C10.2938 10.692 10.2955 11.1391 10.2951 11.3851C10.2948 11.631 10.2924 11.6622 10.2901 11.7237C10.2878 11.7852 10.2856 11.876 10.2917 11.9726" stroke="var(--stroke-0, white)" stroke-width="1.2" stroke-linecap="round"/>
<path id="Vector 7_2" d="M10.2952 12.0647C10.2952 12.0647 10.2969 12.0647 10.634 12.0647C10.9711 12.0647 11.6443 12.0647 12.1507 12.0672C12.6572 12.0697 12.9765 12.0747 13.3055 12.0799" stroke="var(--stroke-0, white)" stroke-width="1.2" stroke-linecap="round"/>
</g>
</g>
</svg>
