<svg preserveAspectRatio="none" width="100%" height="100%" overflow="visible" style="display: block;" viewBox="0 0 12.7787 16.9441" fill="none" xmlns="http://www.w3.org/2000/svg">
<g id="Group 21">
<path id="Vector 43" d="M6.48047 1.17389V15.9441" stroke="var(--stroke-0, white)" stroke-width="2" stroke-linecap="round"/>
<path id="Vector 44" d="M1 6.60882C1.15926 6.45354 2.29065 5.23678 2.93513 4.54681C3.24631 4.21367 4.283 3.13017 4.91551 2.49661C5.22018 2.19143 5.4288 2.00403 5.66538 1.80082C5.73881 1.7482 5.80142 1.63011 5.87959 1.58403C5.95777 1.53794 6.2401 1.09255 6.38964 1.01861" stroke="var(--stroke-0, white)" stroke-width="2" stroke-linecap="round"/>
<path id="Vector 45" d="M6.39844 1.00006C6.52343 1.16651 7.566 1.92759 7.9893 2.42201C9.33858 3.99798 10.0807 4.6243 10.3353 4.88254C10.7796 5.32288 11.1256 5.64287 11.3814 5.90181C11.4563 5.97676 11.5456 6.06287 11.7787 6.28419" stroke="var(--stroke-0, white)" stroke-width="2" stroke-linecap="round"/>
</g>
</svg>
