<svg viewBox="0 0 15.5533 16.6247" fill="none" xmlns="http://www.w3.org/2000/svg">
<path d="M14.7552 6.41138C14.7276 6.37313 14.3221 5.93939 14.0758 5.6779C14.0305 5.6298 13.9002 5.48956 13.3586 5.00695C12.9335 4.62819 12.1805 4.00535 11.7305 3.62987C11.2805 3.25439 11.1503 3.15223 11.0114 3.02881C10.7221 2.77168 10.4255 2.5131 10.1441 2.31808C9.79607 2.07691 9.60543 1.90294 9.37987 1.76155C9.25979 1.68628 9.07936 1.52369 8.81087 1.32502C8.60468 1.1952 8.52622 1.14211 8.47563 1.11034C8.45039 1.09366 7.74711 0.72705 7.69888 0.700126" stroke="black" stroke-width="1.4" stroke-linecap="round"/>
<path d="M0.798022 6.41128C0.825632 6.37303 1.23112 5.93929 1.47747 5.6778C1.52277 5.6297 1.65308 5.48946 2.1947 5.00686C2.61977 4.6281 3.37273 4.00526 3.82277 3.62978C4.2728 3.2543 4.40295 3.15213 4.54183 3.02871C4.83118 2.77159 5.12771 2.513 5.40914 2.31799C5.75719 2.07681 5.94783 1.90285 6.17339 1.76146C6.29347 1.68619 6.4739 1.5236 6.74239 1.32492C6.94858 1.19511 7.02704 1.14202 7.07763 1.11024C7.10287 1.09356 7.59438 0.739077 7.64262 0.712153" stroke="black" stroke-width="1.4" stroke-linecap="round"/>
<path d="M14.7552 6.5373C14.7552 6.53613 14.7552 6.53495 14.7698 7.79768C14.7843 9.06041 14.8134 11.5871 14.83 12.9034C14.8466 14.2198 14.8499 14.2493 14.8516 14.5352C14.8532 14.821 14.8532 15.3624 14.8532 15.9201" stroke="black" stroke-width="1.4" stroke-linecap="round"/>
<path d="M0.798022 6.54194C0.798022 6.54076 0.798022 6.53959 0.783477 7.80232C0.768933 9.06505 0.739843 11.5917 0.72323 12.9081C0.706618 14.2244 0.703365 14.2539 0.701689 14.5398C0.700013 14.8257 0.700013 15.367 0.700013 15.9247" stroke="black" stroke-width="1.4" stroke-linecap="round"/>
<path d="M10.415 10.3287C10.415 10.3326 10.415 10.3364 10.4233 11.1775C10.4315 12.0186 10.4479 13.6969 10.4515 14.5964C10.4551 15.496 10.4452 15.566 10.4368 15.6247C10.4285 15.6834 10.4218 15.7287 10.4051 15.8741" stroke="black" stroke-width="1.4" stroke-linecap="round"/>
<path d="M5.13823 10.3334C5.13823 10.3372 5.13823 10.341 5.13 11.1821C5.12177 12.0232 5.10532 13.7015 5.10177 14.6011C5.09821 15.5007 5.10805 15.5707 5.11642 15.6294C5.1248 15.6881 5.13141 15.7333 5.14812 15.8787" stroke="black" stroke-width="1.4" stroke-linecap="round"/>
<path d="M0.7 15.9247L5.101 15.9247" stroke="black" stroke-width="1.4" stroke-linecap="round"/>
<path d="M5.39751 10.2042H10.2654" stroke="black" stroke-width="1.4" stroke-linecap="round"/>
<path d="M10.5679 15.874L14.8533 15.874" stroke="black" stroke-width="1.4" stroke-linecap="round"/>
</svg>